<?xml version="1.0" encoding="UTF-8"?>
<svg id="b" data-name="图层 2" xmlns="http://www.w3.org/2000/svg" viewBox="0 0 724 724">
  <g id="c" data-name="图层 1">
    <g>
      <path d="M480.68,370.88c-4.07-6.5-8.24-12.86-12.52-19.02,3.64,6.7,7.84,13.06,12.52,19.02Z" style="fill: #fff;"/>
      <path d="M255.84,351.86c-4.27,6.17-8.45,12.53-12.52,19.02,4.68-5.96,8.87-12.32,12.52-19.02Z" style="fill: #fff;"/>
      <path d="M588.1,423.4c-43.41,0-82.07-20.36-106.95-52.04,24.22,38.66,44.69,82.07,59.74,117.18,36.04,84.09,52.3,133.85,76.32,175.19,24.03,41.34,23.8,60.26,106.77,60.27h.01v-436.5c0,75.06-60.84,135.9-135.9,135.9Z" style="fill: #fff;"/>
      <path d="M479.48,204.25c11.71-20.08,18.42-43.43,18.42-68.35C497.9,60.85,437.06,0,362,0h0c-75.05,0-135.9,60.85-135.9,135.9,0,24.91,6.71,48.26,18.41,68.34,17.42,22.85,27.77,51.37,27.77,82.31,0,23.48-5.95,45.57-16.44,64.84,31.2-45.02,67.62-79.59,106.16-79.59s74.96,34.57,106.16,79.59c-10.48-19.27-16.44-41.36-16.44-64.84,0-30.94,10.35-59.46,27.76-82.3Z" style="fill: #fff;"/>
      <path d="M135.9,423.4C60.84,423.4,0,362.55,0,287.5v436.5h.01c82.97,0,82.75-18.92,106.77-60.27,24.03-41.35,40.28-91.1,76.32-175.19,15.05-35.11,35.52-78.52,59.74-117.19-24.88,31.69-63.54,52.04-106.95,52.04Z" style="fill: #fff;"/>
    </g>
  </g>
</svg>